<?xml version="1.0" standalone="no"?>
<!DOCTYPE svg PUBLIC "-//W3C//DTD SVG 20010904//EN"
 "http://www.w3.org/TR/2001/REC-SVG-20010904/DTD/svg10.dtd">
<svg version="1.0" xmlns="http://www.w3.org/2000/svg"
 width="260.000000pt" height="260.000000pt" viewBox="0 0 260.000000 260.000000"
 preserveAspectRatio="xMidYMid meet">
<metadata>
Created by potrace 1.11, written by Peter Selinger 2001-2013
</metadata>
<g transform="translate(0.000000,260.000000) scale(0.100000,-0.100000)"
fill="#000000" stroke="none">
<path d="M452 2586 c-158 -39 -316 -164 -385 -306 -70 -143 -68 -107 -65
-1006 l3 -809 24 -64 c31 -84 110 -200 174 -256 59 -52 166 -109 247 -130 46
-12 185 -15 852 -15 l797 0 78 25 c144 46 239 117 321 239 27 41 60 102 73
137 l24 64 3 809 c2 701 1 816 -13 870 -43 173 -161 320 -316 394 -46 22 -108
45 -137 51 -81 17 -1610 13 -1680 -3z m1403 -451 c141 -37 271 -128 332 -233
34 -57 63 -154 63 -208 l0 -44 -184 0 -183 0 -7 41 c-19 116 -108 177 -247
167 -92 -7 -153 -43 -181 -105 -52 -117 30 -197 292 -289 251 -87 405 -198
472 -340 32 -67 33 -73 33 -199 0 -120 -2 -134 -27 -188 -56 -119 -166 -204
-323 -248 -67 -19 -104 -23 -225 -22 -128 0 -155 3 -235 27 -122 37 -198 80
-272 152 -74 72 -127 174 -143 274 -17 111 -36 100 179 100 l188 0 6 -54 c15
-146 115 -214 297 -204 63 4 87 10 118 30 89 59 96 186 16 262 -36 33 -119 74
-247 120 -140 51 -252 106 -325 160 -220 163 -257 453 -81 640 87 94 206 151
364 176 80 12 246 5 320 -15z m-1065 -825 l0 -830 -185 0 -185 0 0 830 0 830
185 0 185 0 0 -830z"/>
</g>
</svg>
